<?xml version="1.0" encoding="UTF-8" standalone="no"?>
<svg
   width="32"
   height="32"
   viewBox="4 4 25.6 25.6"
   fill="none"
   version="1.1"
   id="svg3"
   sodipodi:docname="login.svg"
   inkscape:version="1.3.2 (091e20e, 2023-11-25, custom)"
   xmlns:inkscape="http://www.inkscape.org/namespaces/inkscape"
   xmlns:sodipodi="http://sodipodi.sourceforge.net/DTD/sodipodi-0.dtd"
   xmlns="http://www.w3.org/2000/svg"
   xmlns:svg="http://www.w3.org/2000/svg">
  <sodipodi:namedview
     id="namedview3"
     pagecolor="#ffffff"
     bordercolor="#000000"
     borderopacity="0.25"
     inkscape:showpageshadow="true"
     inkscape:pageopacity="0.0"
     inkscape:pagecheckerboard="0"
     inkscape:deskcolor="#d1d1d1"
     inkscape:zoom="12.296875"
     inkscape:cx="32.365947"
     inkscape:cy="18.581957"
     inkscape:window-width="1920"
     inkscape:window-height="1001"
     inkscape:window-x="-9"
     inkscape:window-y="-9"
     inkscape:window-maximized="1"
     inkscape:current-layer="svg3" />
  <g
     filter="url(#filter0_d_42611_3029)"
     id="g1"
     transform="matrix(1.0634436,0,0,1.0599356,1.9578262,2.0025413)"
     style="stroke-width:0.941903">
    <rect
       x="2"
       y="2"
       width="24"
       height="24"
       rx="5"
       fill="#ffffff"
       id="rect1"
       style="stroke-width:0.941903" />
    <path
       fill-rule="evenodd"
       clip-rule="evenodd"
       d="M 26,7 C 26,4.23858 23.7614,2 21,2 H 7 C 4.23858,2 2,4.23858 2,7 v 14 c 0,2.7614 2.23858,5 5,5 h 14 c 2.7614,0 5,-2.2386 5,-5 z M 4.39989,14 c 0,-5.28 4.32,-9.6 9.60001,-9.6 5.28,0 9.6,4.32 9.6,9.6 0,5.28 -4.32,9.6 -9.6,9.6 C 8.71989,23.6 4.39989,19.28 4.39989,14 Z M 16.8799,10.16 c 0,-1.58308 -1.2969,-2.88 -2.88,-2.88 -1.5831,0 -2.88,1.29692 -2.88,2.88 0,1.5831 1.2969,2.88 2.88,2.88 1.5831,0 2.88,-1.2969 2.88,-2.88 z m -7.88806,6.5433 c -0.79161,0.6835 -0.4716,1.8729 0.2967,2.5825 1.23716,1.1427 2.89206,1.8588 4.71136,1.8588 1.8176,0 3.4711,-0.7174 4.7079,-1.8575 0.7704,-0.7102 1.0915,-1.9019 0.2977,-2.5859 -1.2145,-1.0466 -3.6071,-1.6074 -5.0056,-1.6074 -1.3995,0 -3.7944,0.5615 -5.00806,1.6095 z"
       fill="#1c4d81"
       id="path1"
       style="stroke-width:0.941903" />
  </g>
  <defs
     id="defs3">
    <filter
       id="filter0_d_42611_3029"
       x="0"
       y="0"
       width="32"
       height="32"
       filterUnits="userSpaceOnUse"
       color-interpolation-filters="sRGB">
      <feFlood
         flood-opacity="0"
         result="BackgroundImageFix"
         id="feFlood1" />
      <feColorMatrix
         in="SourceAlpha"
         type="matrix"
         values="0 0 0 0 0 0 0 0 0 0 0 0 0 0 0 0 0 0 127 0"
         result="hardAlpha"
         id="feColorMatrix1" />
      <feOffset
         dx="2"
         dy="2"
         id="feOffset1" />
      <feGaussianBlur
         stdDeviation="2"
         id="feGaussianBlur1" />
      <feColorMatrix
         type="matrix"
         values="0 0 0 0 0.184314 0 0 0 0 0.501961 0 0 0 0 0.929412 0 0 0 0.25 0"
         id="feColorMatrix2" />
      <feBlend
         mode="normal"
         in2="BackgroundImageFix"
         result="effect1_dropShadow_42611_3029"
         id="feBlend2" />
      <feBlend
         mode="normal"
         in="SourceGraphic"
         in2="effect1_dropShadow_42611_3029"
         result="shape"
         id="feBlend3" />
    </filter>
  </defs>
</svg>
